<svg xmlns="http://www.w3.org/2000/svg" viewBox="0 0 398.33 106.67" fill="none">
  <rect x="9.17" y="9.17" width="88.32" height="88.32" rx="19.76" fill="#20232A"/>
  <path fill="#D08A5D" d="M44.37 49.49 L40.78 49.49 L39.70 54.89 L43.29 54.89 L42.73 57.84 L39.14 57.84 L37.75 64.79 L34.90 64.79 L36.28 57.84 L31.53 57.84 L30.18 64.79 L27.31 64.79 L28.70 57.84 L25.12 57.84 L25.71 54.89 L29.29 54.89 L30.35 49.49 L26.78 49.49 L27.34 46.58 L30.92 46.58 L32.24 39.89 L35.09 39.89 L33.76 46.58 L38.50 46.58 L39.84 39.89 L42.69 39.89 L41.36 46.58 L44.94 46.58 Z M33.10 49.37 L32.00 55.05 L36.92 55.05 L38.05 49.37 Z"/>
  <rect x="49.80" y="39.64" width="26.50" height="6.18" rx="3.09" fill="#F2EEE8" fill-opacity="1"/>
  <rect x="49.80" y="53.33" width="22.79" height="3.97" rx="1.99" fill="#F2EEE8" fill-opacity="0.5"/>
  <rect x="49.80" y="62.17" width="16.43" height="3.97" rx="1.99" fill="#F2EEE8" fill-opacity="0.5"/>
  <path fill="#B4653A" fill-opacity="0.55" d="M179.00 62.20 L173.71 62.20 L172.12 70.15 L177.41 70.15 L176.58 74.49 L171.29 74.49 L169.25 84.71 L165.06 84.71 L167.08 74.49 L160.10 74.49 L158.11 84.71 L153.89 84.71 L155.93 74.49 L150.67 74.49 L151.53 70.15 L156.79 70.15 L158.35 62.20 L153.10 62.20 L153.93 57.91 L159.19 57.91 L161.15 48.05 L165.34 48.05 L163.38 57.91 L170.35 57.91 L172.32 48.05 L176.52 48.05 L174.57 57.91 L179.84 57.91 Z M162.41 62.01 L160.79 70.38 L168.03 70.38 L169.69 62.01 Z"/>
  <path fill="#221F1B" d="M220.51 81.69 Q220.51 83.76 221.00 84.93 Q221.49 86.10 222.83 86.72 Q224.18 87.35 226.81 87.80 L226.81 89.71 L199.48 89.71 L199.48 87.80 Q202.28 87.30 203.71 86.65 Q205.15 86.00 205.64 84.77 Q206.13 83.54 206.13 81.37 L206.13 27.55 Q206.13 25.35 205.64 24.13 Q205.15 22.91 203.71 22.24 Q202.28 21.57 199.48 21.11 L199.48 19.20 L226.81 19.20 L226.81 21.13 Q224.18 21.57 222.83 22.20 Q221.49 22.83 221.00 24.00 Q220.51 25.16 220.51 27.23 Z M246.85 89.71 L225.47 53.12 L242.86 32.47 Q246.34 28.35 247.50 26.02 Q248.66 23.70 247.59 22.60 Q246.51 21.51 243.29 21.11 L243.29 19.20 L263.44 19.20 L263.44 21.11 Q260.74 21.74 258.30 23.05 Q255.86 24.37 253.13 26.68 Q250.40 29.00 246.80 32.67 Q243.23 36.30 240.03 39.78 Q236.83 43.26 234.14 46.27 L235.46 42.99 L253.57 74.12 Q256.57 79.19 258.56 81.99 Q260.55 84.79 262.08 86.06 Q263.62 87.33 265.27 87.92 L265.27 89.71 Z M227.83 54.60 L217.56 54.51 L217.56 52.24 L227.83 52.13 Z M265.05 51.60 Q263.95 48.72 262.99 47.17 Q262.03 45.62 260.79 44.89 Q259.55 44.17 257.59 43.74 L257.59 41.84 L284.05 41.84 L284.05 43.74 Q281.19 44.14 279.90 44.98 Q278.62 45.82 278.67 47.68 Q278.73 49.54 279.84 53.02 L288.92 79.78 L287.85 79.78 L296.87 53.21 Q298.04 49.64 298.08 47.74 Q298.13 45.85 296.86 45.01 Q295.60 44.17 292.78 43.74 L292.78 41.84 L308.61 41.84 L308.61 43.74 Q306.64 44.14 305.36 44.98 Q304.08 45.81 302.96 47.79 Q301.85 49.77 300.35 53.63 L286.39 89.71 L279.65 89.71 Z M328.07 41.22 L328.07 82.53 Q328.07 85.17 329.09 86.17 Q330.12 87.17 333.73 87.81 L333.73 89.71 L309.12 89.71 L309.12 87.81 Q312.78 87.17 313.81 86.17 Q314.83 85.17 314.83 82.53 L314.83 50.70 Q314.83 48.35 314.30 47.55 Q313.76 46.74 311.76 46.06 L309.12 45.23 L309.12 43.47 Z M320.55 34.00 Q317.62 34.00 315.54 32.04 Q313.47 30.09 313.47 27.21 Q313.47 24.33 315.54 22.40 Q317.62 20.47 320.55 20.47 Q323.53 20.47 325.58 22.40 Q327.63 24.33 327.63 27.21 Q327.63 30.09 325.58 32.04 Q323.53 34.00 320.55 34.00 Z M355.33 16.96 L355.33 82.55 Q355.33 85.16 356.36 86.18 Q357.39 87.19 360.99 87.80 L360.99 89.71 L336.41 89.71 L336.41 87.80 Q340.03 87.19 341.05 86.18 Q342.07 85.16 342.07 82.55 L342.07 26.23 Q342.07 24.01 341.55 23.23 Q341.03 22.45 339.01 21.75 L336.41 20.94 L336.41 19.20 Z M382.67 16.96 L382.67 82.55 Q382.67 85.16 383.70 86.18 Q384.73 87.19 388.33 87.80 L388.33 89.71 L363.75 89.71 L363.75 87.80 Q367.37 87.19 368.39 86.18 Q369.41 85.16 369.41 82.55 L369.41 26.23 Q369.41 24.01 368.89 23.23 Q368.36 22.45 366.35 21.75 L363.75 20.94 L363.75 19.20 Z"/>
</svg>
